<svg width="162" height="92" viewBox="0 0 162 92" fill="none" xmlns="http://www.w3.org/2000/svg">
<path opacity="0.5" d="M144.131 12.7979C144.074 5.50846 135.499 -0.0908637 125.385 0.00111704C79.6022 0.41503 51.0755 12.384 34.3243 28.4979C17.7197 44.468 13.0942 64.1289 13.8841 79.5932C14.2342 86.3767 22.0357 91.5679 31.417 91.8726C76.3936 93.3443 104.92 81.9099 122.005 65.6408C138.911 49.5442 144.253 29.09 144.131 12.7979ZM125.475 5.74991C131.281 5.69817 135.947 8.87725 135.98 12.8209C136.012 17.9833 135.475 23.5309 134.172 29.1762L102.844 7.06063C110.335 6.23864 117.893 5.80058 125.475 5.74991ZM93.2344 8.4116L112.738 22.18L132.242 35.9483C129.107 45.1406 123.773 54.2985 115.466 62.2203C104.733 72.4244 88.8695 80.7429 65.7093 84.3359C65.6545 84.2886 65.5974 84.2426 65.5383 84.1979L25.3908 55.8621C28.2899 47.5666 33.2168 39.2711 40.8798 31.8954C51.7677 21.4326 68.3804 12.6255 93.2426 8.4116H93.2344ZM23.4527 62.6227L55.9046 85.5317C48.5347 86.1928 40.5133 86.417 31.7835 86.1353C26.4088 85.9571 22.2067 83.0194 22.0113 79.3804C21.7507 74.149 22.1416 68.452 23.4527 62.6227Z" fill="#AC9D98"/>
<path d="M0.8832 22.2911H5.5752L9.9084 35.0423L9.2736 34.7663L13.0548 25.3547L14.904 30.8471L9.0528 43.4051L0.8832 22.2911ZM11.0676 22.2911H15.042L20.0376 34.6283L19.32 34.5179L23.046 22.2911H27.3516L19.5132 43.3499L11.0676 22.2911ZM43.5649 22.1531H57.4201V26.0171H47.5669V30.3503H56.2885V34.2143H47.5669V38.6027H57.8065V42.4667H43.5649V22.1531ZM80.7977 22.1531C82.0673 22.1531 83.1989 22.3187 84.1925 22.6499C85.1861 22.9627 86.0141 23.4227 86.6765 24.0299C87.3573 24.6187 87.8725 25.3363 88.2221 26.1827C88.5717 27.0107 88.7465 27.9491 88.7465 28.9979C88.7465 29.8259 88.6177 30.6539 88.3601 31.4819C88.1209 32.3099 87.7161 33.0643 87.1457 33.7451C86.5937 34.4259 85.8577 34.9779 84.9377 35.4011C84.0177 35.8059 82.8769 36.0083 81.5153 36.0083H78.6449V42.4667H74.6429V22.1531H80.7977ZM81.4877 32.1443C82.0949 32.1443 82.6009 32.0431 83.0057 31.8407C83.4105 31.6383 83.7233 31.3807 83.9441 31.0679C84.1833 30.7551 84.3489 30.4331 84.4409 30.1019C84.5513 29.7523 84.6065 29.4303 84.6065 29.1359C84.6065 28.9151 84.5697 28.6391 84.4961 28.3079C84.4409 27.9583 84.3121 27.6087 84.1097 27.2591C83.9073 26.9095 83.5945 26.6151 83.1713 26.3759C82.7665 26.1367 82.2145 26.0171 81.5153 26.0171H78.6449V32.1443H81.4877ZM85.2413 34.6283L90.2645 42.4667H85.6001L80.4665 34.7387L85.2413 34.6283ZM124.448 43.2947L109.048 29.3843L110.234 30.0467L110.317 42.4667H106.26V21.3527H106.426L121.495 35.2079L120.612 34.8215L120.529 22.1531H124.559V43.2947H124.448ZM141.244 32.3375C141.244 30.9391 141.511 29.6143 142.044 28.3631C142.578 27.1119 143.314 26.0079 144.252 25.0511C145.209 24.0759 146.313 23.3123 147.564 22.7603C148.816 22.2083 150.159 21.9323 151.594 21.9323C153.011 21.9323 154.345 22.2083 155.596 22.7603C156.847 23.3123 157.951 24.0759 158.908 25.0511C159.883 26.0079 160.638 27.1119 161.171 28.3631C161.723 29.6143 161.999 30.9391 161.999 32.3375C161.999 33.7727 161.723 35.1159 161.171 36.3671C160.638 37.6183 159.883 38.7223 158.908 39.6791C157.951 40.6175 156.847 41.3535 155.596 41.8871C154.345 42.4207 153.011 42.6875 151.594 42.6875C150.159 42.6875 148.816 42.4207 147.564 41.8871C146.313 41.3535 145.209 40.6175 144.252 39.6791C143.314 38.7223 142.578 37.6183 142.044 36.3671C141.511 35.1159 141.244 33.7727 141.244 32.3375ZM145.384 32.3375C145.384 33.2391 145.54 34.0855 145.853 34.8767C146.184 35.6495 146.635 36.3395 147.206 36.9467C147.794 37.5355 148.466 37.9955 149.22 38.3267C149.993 38.6579 150.83 38.8235 151.732 38.8235C152.597 38.8235 153.397 38.6579 154.133 38.3267C154.888 37.9955 155.541 37.5355 156.093 36.9467C156.645 36.3395 157.077 35.6495 157.39 34.8767C157.703 34.0855 157.859 33.2391 157.859 32.3375C157.859 31.4175 157.694 30.5619 157.362 29.7707C157.05 28.9795 156.608 28.2895 156.038 27.7007C155.486 27.0935 154.832 26.6243 154.078 26.2931C153.324 25.9619 152.505 25.7963 151.622 25.7963C150.738 25.7963 149.92 25.9619 149.165 26.2931C148.411 26.6243 147.748 27.0935 147.178 27.7007C146.608 28.2895 146.166 28.9795 145.853 29.7707C145.54 30.5619 145.384 31.4175 145.384 32.3375Z" fill="#9F4336"/>
<path d="M11.1406 51.6225C10.5657 51.3273 9.93641 51.0709 9.25275 50.8534C8.56908 50.6359 7.90096 50.5271 7.24837 50.5271C6.34718 50.5271 5.62468 50.7369 5.08085 51.1564C4.55257 51.5759 4.28843 52.1353 4.28843 52.8345C4.28843 53.3627 4.45934 53.8133 4.80117 54.1862C5.143 54.5436 5.5936 54.8544 6.15296 55.1185C6.71232 55.3827 7.29499 55.6313 7.90096 55.8643C8.42924 56.0663 8.94976 56.2916 9.46251 56.5402C9.97525 56.7888 10.4336 57.0996 10.8376 57.4725C11.2571 57.8454 11.5834 58.3038 11.8165 58.8476C12.0651 59.3914 12.1894 60.0673 12.1894 60.8753C12.1894 61.7609 11.9641 62.5689 11.5135 63.2992C11.0784 64.0294 10.4492 64.6043 9.62565 65.0238C8.80215 65.4434 7.82327 65.6531 6.68901 65.6531C5.9432 65.6531 5.22846 65.5677 4.5448 65.3968C3.87668 65.2258 3.25516 65.0083 2.68027 64.7442C2.10537 64.4645 1.59262 64.177 1.14203 63.8818L2.14421 62.1105C2.51712 62.3747 2.94441 62.631 3.42608 62.8796C3.90775 63.1127 4.41273 63.3069 4.94101 63.4623C5.4693 63.6021 5.98204 63.6721 6.47925 63.6721C7.00754 63.6721 7.52805 63.5788 8.0408 63.3924C8.56908 63.1904 9.00414 62.8874 9.34597 62.4834C9.6878 62.0794 9.85872 61.5434 9.85872 60.8753C9.85872 60.3004 9.70334 59.8265 9.39259 59.4536C9.09737 59.0651 8.70115 58.7388 8.20395 58.4747C7.70674 58.195 7.17845 57.9464 6.61909 57.7289C6.09081 57.5269 5.55475 57.3093 5.01093 57.0763C4.46711 56.8277 3.96213 56.5325 3.496 56.1906C3.02987 55.8333 2.65696 55.3982 2.37728 54.8854C2.0976 54.3727 1.95776 53.7512 1.95776 53.0209C1.95776 52.1353 2.16752 51.3661 2.58704 50.7136C3.0221 50.0454 3.61253 49.5249 4.35835 49.152C5.10416 48.7636 5.95874 48.5538 6.92208 48.5227C8.00972 48.5227 8.9653 48.6548 9.7888 48.9189C10.6278 49.1831 11.3659 49.5094 12.0029 49.8978L11.1406 51.6225ZM18.716 59.5002C18.716 60.2615 18.8947 60.9452 19.252 61.5512C19.6249 62.1416 20.1144 62.6077 20.7204 62.9496C21.3263 63.2914 22.01 63.4623 22.7713 63.4623C23.5638 63.4623 24.2707 63.2914 24.8922 62.9496C25.5138 62.6077 26.0032 62.1416 26.3606 61.5512C26.7179 60.9452 26.8966 60.2615 26.8966 59.5002V48.616H29.1108V59.5701C29.1108 60.7976 28.8233 61.8697 28.2484 62.7864C27.689 63.7031 26.9277 64.4101 25.9644 64.9073C25.0165 65.4045 23.9522 65.6531 22.7713 65.6531C21.5905 65.6531 20.5261 65.4045 19.5783 64.9073C18.6305 64.4101 17.8769 63.7031 17.3176 62.7864C16.7582 61.8697 16.4785 60.7976 16.4785 59.5701V48.616H18.716V59.5002ZM38.9099 48.616C39.7645 48.616 40.5492 48.7325 41.2639 48.9656C41.9942 49.1831 42.6235 49.5171 43.1517 49.9677C43.6956 50.4028 44.1151 50.9466 44.4103 51.5992C44.7211 52.2363 44.8764 52.9821 44.8764 53.8366C44.8764 54.5048 44.7754 55.1574 44.5735 55.7944C44.387 56.4315 44.0685 57.0141 43.6179 57.5424C43.1673 58.0552 42.5768 58.4747 41.8466 58.801C41.1318 59.1117 40.2462 59.2671 39.1896 59.2671H36.6958V65.4667H34.4351V48.616H38.9099ZM39.143 57.0996C39.8111 57.0996 40.3627 56.9986 40.7978 56.7966C41.2484 56.5946 41.598 56.3382 41.8466 56.0275C42.0952 55.7012 42.2739 55.3516 42.3826 54.9787C42.4914 54.6058 42.5458 54.2562 42.5458 53.9299C42.5458 53.588 42.4836 53.2384 42.3593 52.8811C42.2506 52.5082 42.0641 52.1663 41.8 51.8556C41.5514 51.5448 41.2173 51.2885 40.7978 51.0865C40.3938 50.8845 39.8966 50.7835 39.3061 50.7835H36.6958V57.0996H39.143ZM41.9165 58.3814L46.3214 65.4667H43.7111L39.2362 58.4514L41.9165 58.3814ZM50.4975 48.616H60.4961V50.7835H52.7583V56.1673H59.5405V58.3115H52.7583V65.4667H50.4975V48.616ZM69.2563 48.616C70.9499 48.616 72.2784 48.9656 73.2417 49.6648C74.2206 50.3484 74.7101 51.4205 74.7101 52.8811C74.7101 53.7667 74.5081 54.5358 74.1041 55.1884C73.7001 55.841 73.133 56.3538 72.4027 56.7267C71.688 57.0996 70.8411 57.3093 69.8623 57.356L69.536 56.1906C70.6702 56.2217 71.688 56.4237 72.5892 56.7966C73.4903 57.1695 74.2051 57.69 74.7334 58.3581C75.2616 59.0263 75.5258 59.8187 75.5258 60.7354C75.5258 61.5745 75.3704 62.297 75.0597 62.9029C74.7489 63.4934 74.3294 63.9828 73.8011 64.3713C73.2728 64.7442 72.6746 65.0238 72.0065 65.2103C71.3384 65.3812 70.6469 65.4667 69.9322 65.4667H64.9213V48.616H69.2563ZM69.7224 56.0042C70.6547 56.0042 71.3306 55.7478 71.7501 55.235C72.1696 54.7068 72.3794 54.0697 72.3794 53.3239C72.3794 52.4382 72.1075 51.7934 71.5637 51.3894C71.0198 50.9855 70.2896 50.7835 69.3728 50.7835H67.182V56.0042H69.7224ZM69.8157 63.3691C70.4372 63.3691 71.0043 63.2758 71.517 63.0894C72.0453 62.9029 72.4571 62.6155 72.7523 62.227C73.0631 61.8386 73.2184 61.3492 73.2184 60.7587C73.2184 60.1061 73.0397 59.5934 72.6824 59.2205C72.3405 58.8476 71.8977 58.5834 71.3539 58.4281C70.8101 58.2571 70.2507 58.1717 69.6758 58.1717H67.182V63.3691H69.8157ZM78.979 57.053C78.979 55.8876 79.1965 54.7922 79.6316 53.7667C80.0822 52.7257 80.7037 51.809 81.4961 51.0165C82.2885 50.2086 83.1975 49.5793 84.223 49.1287C85.264 48.6626 86.3827 48.4295 87.5792 48.4295C88.76 48.4295 89.8632 48.6626 90.8887 49.1287C91.9297 49.5793 92.8465 50.2086 93.6389 51.0165C94.4469 51.809 95.0761 52.7257 95.5267 53.7667C95.9773 54.7922 96.2026 55.8876 96.2026 57.053C96.2026 58.2494 95.9773 59.3681 95.5267 60.4091C95.0761 61.4502 94.4469 62.3669 93.6389 63.1593C92.8465 63.9362 91.9297 64.5499 90.8887 65.0005C89.8632 65.4356 88.76 65.6531 87.5792 65.6531C86.3827 65.6531 85.264 65.4356 84.223 65.0005C83.1975 64.5655 82.2885 63.9595 81.4961 63.1826C80.7037 62.4057 80.0822 61.4968 79.6316 60.4557C79.1965 59.4147 78.979 58.2805 78.979 57.053ZM81.3097 57.0763C81.3097 57.9619 81.4728 58.7932 81.7991 59.5701C82.1254 60.3314 82.576 61.0073 83.1509 61.5978C83.7258 62.1882 84.3939 62.6543 85.1553 62.9962C85.9166 63.3225 86.7401 63.4856 87.6258 63.4856C88.4959 63.4856 89.3116 63.3225 90.073 62.9962C90.8343 62.6543 91.4947 62.1882 92.054 61.5978C92.6134 61.0073 93.0562 60.3314 93.3825 59.5701C93.7088 58.7932 93.872 57.9542 93.872 57.053C93.872 56.1673 93.7088 55.336 93.3825 54.5592C93.0562 53.7667 92.6056 53.0753 92.0307 52.4849C91.4558 51.8944 90.7877 51.4361 90.0264 51.1098C89.265 50.7679 88.4493 50.597 87.5792 50.597C86.6935 50.597 85.87 50.7679 85.1087 51.1098C84.3473 51.4516 83.6792 51.9177 83.1043 52.5082C82.5294 53.0986 82.0866 53.79 81.7758 54.5825C81.465 55.3594 81.3097 56.1906 81.3097 57.0763ZM98.1221 65.4667L105.487 47.9168H105.627L112.968 65.4667H110.381L104.881 51.4594L106.489 50.4106L100.336 65.4667H98.1221ZM102.434 59.0806H108.703L109.449 61.0384H101.781L102.434 59.0806ZM121.316 48.616C122.171 48.616 122.956 48.7325 123.67 48.9656C124.401 49.1831 125.03 49.5171 125.558 49.9677C126.102 50.4028 126.521 50.9466 126.817 51.5992C127.127 52.2363 127.283 52.9821 127.283 53.8366C127.283 54.5048 127.182 55.1574 126.98 55.7944C126.793 56.4315 126.475 57.0141 126.024 57.5424C125.574 58.0552 124.983 58.4747 124.253 58.801C123.538 59.1117 122.653 59.2671 121.596 59.2671H119.102V65.4667H116.841V48.616H121.316ZM121.549 57.0996C122.217 57.0996 122.769 56.9986 123.204 56.7966C123.655 56.5946 124.004 56.3382 124.253 56.0275C124.502 55.7012 124.68 55.3516 124.789 54.9787C124.898 54.6058 124.952 54.2562 124.952 53.9299C124.952 53.588 124.89 53.2384 124.766 52.8811C124.657 52.5082 124.47 52.1663 124.206 51.8556C123.958 51.5448 123.624 51.2885 123.204 51.0865C122.8 50.8845 122.303 50.7835 121.712 50.7835H119.102V57.0996H121.549ZM124.323 58.3814L128.728 65.4667H126.117L121.643 58.4514L124.323 58.3814ZM132.904 65.4667V48.616H137.495C139.158 48.616 140.572 48.8723 141.737 49.3851C142.918 49.8978 143.866 50.5737 144.581 51.4128C145.295 52.2518 145.816 53.1841 146.142 54.2096C146.484 55.2195 146.655 56.2295 146.655 57.2394C146.655 58.5135 146.43 59.6555 145.979 60.6655C145.544 61.6755 144.938 62.5378 144.161 63.2525C143.384 63.9673 142.491 64.5189 141.481 64.9073C140.486 65.2802 139.43 65.4667 138.311 65.4667H132.904ZM135.165 63.2992H137.868C138.8 63.2992 139.655 63.1593 140.432 62.8796C141.224 62.6 141.908 62.196 142.483 61.6677C143.073 61.1394 143.532 60.4946 143.858 59.7332C144.184 58.9563 144.347 58.0785 144.347 57.0996C144.347 56.0586 144.177 55.1496 143.835 54.3727C143.493 53.5803 143.027 52.9199 142.436 52.3916C141.846 51.8634 141.178 51.4671 140.432 51.203C139.686 50.9233 138.901 50.7835 138.078 50.7835H135.165V63.2992ZM159.868 51.6225C159.293 51.3273 158.664 51.0709 157.98 50.8534C157.297 50.6359 156.628 50.5271 155.976 50.5271C155.075 50.5271 154.352 50.7369 153.808 51.1564C153.28 51.5759 153.016 52.1353 153.016 52.8345C153.016 53.3627 153.187 53.8133 153.529 54.1862C153.87 54.5436 154.321 54.8544 154.88 55.1185C155.44 55.3827 156.022 55.6313 156.628 55.8643C157.157 56.0663 157.677 56.2916 158.19 56.5402C158.703 56.7888 159.161 57.0996 159.565 57.4725C159.985 57.8454 160.311 58.3038 160.544 58.8476C160.793 59.3914 160.917 60.0673 160.917 60.8753C160.917 61.7609 160.692 62.5689 160.241 63.2992C159.806 64.0294 159.177 64.6043 158.353 65.0238C157.53 65.4434 156.551 65.6531 155.416 65.6531C154.671 65.6531 153.956 65.5677 153.272 65.3968C152.604 65.2258 151.983 65.0083 151.408 64.7442C150.833 64.4645 150.32 64.177 149.869 63.8818L150.872 62.1105C151.245 62.3747 151.672 62.631 152.154 62.8796C152.635 63.1127 153.14 63.3069 153.668 63.4623C154.197 63.6021 154.71 63.6721 155.207 63.6721C155.735 63.6721 156.256 63.5788 156.768 63.3924C157.297 63.1904 157.732 62.8874 158.073 62.4834C158.415 62.0794 158.586 61.5434 158.586 60.8753C158.586 60.3004 158.431 59.8265 158.12 59.4536C157.825 59.0651 157.429 58.7388 156.931 58.4747C156.434 58.195 155.906 57.9464 155.347 57.7289C154.818 57.5269 154.282 57.3093 153.738 57.0763C153.195 56.8277 152.69 56.5325 152.223 56.1906C151.757 55.8333 151.384 55.3982 151.105 54.8854C150.825 54.3727 150.685 53.7512 150.685 53.0209C150.685 52.1353 150.895 51.3661 151.315 50.7136C151.75 50.0454 152.34 49.5249 153.086 49.152C153.832 48.7636 154.686 48.5538 155.65 48.5227C156.737 48.5227 157.693 48.6548 158.516 48.9189C159.355 49.1831 160.093 49.5094 160.73 49.8978L159.868 51.6225Z" fill="#C99188"/>
</svg>
