<svg width="143" height="144" viewBox="0 0 143 144" fill="none" xmlns="http://www.w3.org/2000/svg">
<path d="M112.535 14.1881C107.92 12.2317 102.472 12.6722 99.1829 16.7643C95.9181 10.0023 86.09 9.45322 83.827 14.1553C83.7203 14.141 83.6132 14.1305 83.5065 14.1162C81.0105 11.8714 78.7139 11.9758 76.9317 13.4232C73.9652 8.02624 66.4246 8.46021 62.6601 12.7953C60.872 7.12086 52.0145 9.38783 52.7754 15.7334C52.787 15.8317 52.8062 15.9264 52.8219 16.0211C51.2987 16.4065 49.7859 16.8322 48.2851 17.2979C46.8892 15.6819 45.1302 14.4236 43.1535 13.6272C39.9641 12.347 36.225 12.3087 32.649 14.1585L20.5296 42.6758C21.7192 44.3717 23.8313 45.9408 25.9701 46.5418C22.2986 50.3906 18.9464 54.5346 15.947 58.9324C15.7862 59.1256 15.6259 59.323 15.4704 59.5313C14.9558 60.2194 14.535 60.9037 14.1989 61.5829C6.30697 74.0204 1.46426 87.9992 0.805338 101.85L5.63281 103.918C5.84794 92.7794 9.06628 81.3196 14.617 70.6851C18.1592 76.0867 27.2563 78.1139 32.4873 71.1156C37.2578 64.7324 33.7431 57.9535 28.2414 55.6263C27.2634 55.2129 26.2194 54.9421 25.1508 54.8374C28.1142 51.246 31.3611 47.8553 34.8575 44.7373C37.5365 42.346 40.3562 40.1188 43.3013 38.0678C45.597 41.6013 51.8103 43.6623 55.3681 37.2422C55.1966 38.5433 56.7861 39.9953 58.3662 40.6506C53.4285 45.2305 49.088 50.4375 45.416 56.0431C38.5374 66.5441 33.9409 78.4752 32.0981 90.4716C26.4241 88.9769 22.2478 97.1852 28.4038 99.9797C29.3992 100.431 30.3409 100.6 31.2041 100.555C31.0941 105.602 31.5055 110.588 32.4673 115.417L38.0309 117.801C33.1509 99.1545 37.7414 76.6894 49.4951 58.7464C49.6447 58.5181 49.8008 58.2943 49.9523 58.0677C51.2652 63.3878 55.7282 65.191 59.8647 64.3583C59.1252 66.1638 58.4462 67.9929 57.8354 69.8418C51.5436 88.9011 51.958 110.018 59.5574 127.025L66.5626 130.026C57.2273 113.717 55.887 91.3227 62.4681 71.3889C68.0192 54.5743 79.0732 39.5964 95.4729 31.2364C85.0175 40.693 78.1476 52.7468 74.4833 65.6521C71.1953 66.2448 68.3481 69.0011 69.11 73.5753C69.4818 75.8082 70.5536 77.333 71.935 78.2479C71.6996 80.1454 71.5267 82.0501 71.4165 83.959C70.2681 103.774 75.7316 123.818 86.7679 138.685L97.1667 143.14C83.2522 129.748 75.564 108.176 76.1954 86.6223C79.2189 88.1006 83.8811 85.6932 83.2451 81.1668C82.9708 79.2247 81.9007 78.0136 80.5722 77.4517C82.1242 76.0695 83.0514 73.9705 82.6097 71.3208C82.2137 68.9417 80.9488 67.3255 79.3324 66.4187C82.6568 55.0021 88.6606 44.4036 97.643 35.9053L97.6811 36.4213C89.9614 50.2801 88.1632 66.2435 90.7864 81.2565C91.6138 85.9928 92.8763 90.6422 94.5253 95.1187C94.2623 94.9453 93.9842 94.7962 93.6944 94.6732C88.9522 92.6967 84.5035 99.5893 89.5045 103.363C92.8398 105.879 96.0698 103.636 96.8102 100.666C101.947 111.919 109.606 121.725 119.04 128.492L121.013 123.85C108.131 114.184 98.653 97.8867 95.5972 80.4004C93.6011 68.9776 94.3049 57.1163 98.4529 46.2185C106.288 30.727 126.582 45.601 126.771 56.8804C128.771 47.8133 127.087 40.4032 123.208 34.4568C128.343 32.6716 126.029 24.9573 120.893 25.9963C120.935 20.4971 117.15 16.1449 112.535 14.189L112.535 14.1881ZM79.0225 0.399339C78.5002 0.204928 77.8894 0.128501 77.1996 0.197828C72.2255 0.697057 72.3192 8.34198 77.5844 7.81331C82.0883 7.36046 82.3111 1.88669 79.2401 0.49227C79.1688 0.459452 79.0971 0.426429 79.0224 0.398996L79.0225 0.399339ZM140.143 33.12C135.589 31.0533 131.865 37.7307 136.685 39.9188C141.573 42.1359 144.762 35.2163 140.143 33.12ZM48.0212 2.02497C45.5423 1.06644 41.9863 2.97392 42.4168 6.56561C43.052 11.8659 50.9319 10.8224 50.26 5.21512C50.0531 3.48665 49.1478 2.46089 48.0212 2.02497ZM60.4771 19.4349C60.4903 19.6725 60.5056 19.9106 60.5345 20.1551C60.68 21.3673 60.9978 22.4266 61.4422 23.3459C57.897 24.5767 54.438 26.0456 51.0885 27.7426C51.5128 25.7234 51.3991 23.6279 50.7589 21.668C52.7443 21.0797 54.7538 20.5797 56.7773 20.1422C58.0275 20.3483 59.3658 20.0997 60.4776 19.4349L60.4771 19.4349ZM73.7923 26.5946C74.0128 27.463 74.328 28.3042 74.7323 29.1029C73.2139 29.8861 71.7239 30.7239 70.2652 31.6145C70.0403 30.2955 69.5521 29.0362 68.8299 27.9123C70.572 27.9333 72.2873 27.478 73.7923 26.5946ZM126.161 63.7653C119.89 61.2763 114.913 70.4221 121.591 73.4513C128.47 76.573 132.954 66.8419 126.453 63.8908C126.353 63.8449 126.26 63.805 126.16 63.7652L126.161 63.7653ZM67.0151 39.7425C66.7769 42.4403 68.5108 44.6052 70.9258 45.3271C69.5268 47.0931 68.2079 48.9216 66.9729 50.8069C66.0889 48.6413 64.5613 47.1747 62.7567 46.3592C61.9459 45.9926 61.0818 45.7643 60.1975 45.6552C62.3456 43.5438 64.6225 41.5689 67.015 39.7422L67.0151 39.7425ZM130.069 78.8157C125.667 76.8179 122.061 83.2621 126.722 85.3761C131.447 87.5198 134.535 80.8413 130.069 78.8157Z" fill="#00B4B5"/>
</svg>
